<svg width="128" height="37" viewBox="0 0 128 37" fill="none" xmlns="http://www.w3.org/2000/svg">
<path d="M0.00852299 36V1.09091H4.2358V32.25H20.4631V36H0.00852299ZM55.1037 18.5455C55.1037 22.2273 54.4389 25.4091 53.1094 28.0909C51.7798 30.7727 49.956 32.8409 47.6378 34.2955C45.3196 35.75 42.6719 36.4773 39.6946 36.4773C36.7173 36.4773 34.0696 35.75 31.7514 34.2955C29.4332 32.8409 27.6094 30.7727 26.2798 28.0909C24.9503 25.4091 24.2855 22.2273 24.2855 18.5455C24.2855 14.8636 24.9503 11.6818 26.2798 9C27.6094 6.31818 29.4332 4.25 31.7514 2.79545C34.0696 1.34091 36.7173 0.613635 39.6946 0.613635C42.6719 0.613635 45.3196 1.34091 47.6378 2.79545C49.956 4.25 51.7798 6.31818 53.1094 9C54.4389 11.6818 55.1037 14.8636 55.1037 18.5455ZM51.0128 18.5455C51.0128 15.5227 50.5071 12.9716 49.4957 10.892C48.4957 8.8125 47.1378 7.23864 45.4219 6.17045C43.7173 5.10227 41.8082 4.56818 39.6946 4.56818C37.581 4.56818 35.6662 5.10227 33.9503 6.17045C32.2457 7.23864 30.8878 8.8125 29.8764 10.892C28.8764 12.9716 28.3764 15.5227 28.3764 18.5455C28.3764 21.5682 28.8764 24.1193 29.8764 26.1989C30.8878 28.2784 32.2457 29.8523 33.9503 30.9205C35.6662 31.9886 37.581 32.5227 39.6946 32.5227C41.8082 32.5227 43.7173 31.9886 45.4219 30.9205C47.1378 29.8523 48.4957 28.2784 49.4957 26.1989C50.5071 24.1193 51.0128 21.5682 51.0128 18.5455ZM86.0753 12C85.7003 10.8523 85.206 9.82386 84.5923 8.91477C83.9901 7.99432 83.2685 7.21023 82.4276 6.5625C81.598 5.91477 80.6548 5.42045 79.598 5.07954C78.5412 4.73864 77.3821 4.56818 76.1207 4.56818C74.0526 4.56818 72.1719 5.10227 70.4787 6.17045C68.7855 7.23864 67.4389 8.8125 66.4389 10.892C65.4389 12.9716 64.9389 15.5227 64.9389 18.5455C64.9389 21.5682 65.4446 24.1193 66.456 26.1989C67.4673 28.2784 68.8366 29.8523 70.5639 30.9205C72.2912 31.9886 74.2344 32.5227 76.3935 32.5227C78.3935 32.5227 80.1548 32.0966 81.6776 31.2443C83.2116 30.3807 84.4048 29.1648 85.2571 27.5966C86.1207 26.017 86.5526 24.1591 86.5526 22.0227L87.848 22.2955H77.348V18.5455H90.6435V22.2955C90.6435 25.1705 90.0298 27.6705 88.8026 29.7955C87.5866 31.9205 85.9048 33.5682 83.7571 34.7386C81.6207 35.8977 79.1662 36.4773 76.3935 36.4773C73.3026 36.4773 70.5866 35.75 68.2457 34.2955C65.9162 32.8409 64.098 30.7727 62.7912 28.0909C61.4957 25.4091 60.848 22.2273 60.848 18.5455C60.848 15.7841 61.2173 13.3011 61.956 11.0966C62.706 8.88068 63.7628 6.99432 65.1264 5.4375C66.4901 3.88068 68.1037 2.6875 69.9673 1.85795C71.831 1.02841 73.8821 0.613635 76.1207 0.613635C77.9616 0.613635 79.6776 0.892044 81.2685 1.44886C82.8707 1.99432 84.2969 2.77273 85.5469 3.78409C86.8082 4.78409 87.8594 5.98295 88.7003 7.38068C89.5412 8.76705 90.1207 10.3068 90.4389 12H86.0753ZM127.338 18.5455C127.338 22.2273 126.673 25.4091 125.344 28.0909C124.014 30.7727 122.19 32.8409 119.872 34.2955C117.554 35.75 114.906 36.4773 111.929 36.4773C108.952 36.4773 106.304 35.75 103.986 34.2955C101.668 32.8409 99.8438 30.7727 98.5142 28.0909C97.1847 25.4091 96.5199 22.2273 96.5199 18.5455C96.5199 14.8636 97.1847 11.6818 98.5142 9C99.8438 6.31818 101.668 4.25 103.986 2.79545C106.304 1.34091 108.952 0.613635 111.929 0.613635C114.906 0.613635 117.554 1.34091 119.872 2.79545C122.19 4.25 124.014 6.31818 125.344 9C126.673 11.6818 127.338 14.8636 127.338 18.5455ZM123.247 18.5455C123.247 15.5227 122.741 12.9716 121.73 10.892C120.73 8.8125 119.372 7.23864 117.656 6.17045C115.952 5.10227 114.043 4.56818 111.929 4.56818C109.815 4.56818 107.901 5.10227 106.185 6.17045C104.48 7.23864 103.122 8.8125 102.111 10.892C101.111 12.9716 100.611 15.5227 100.611 18.5455C100.611 21.5682 101.111 24.1193 102.111 26.1989C103.122 28.2784 104.48 29.8523 106.185 30.9205C107.901 31.9886 109.815 32.5227 111.929 32.5227C114.043 32.5227 115.952 31.9886 117.656 30.9205C119.372 29.8523 120.73 28.2784 121.73 26.1989C122.741 24.1193 123.247 21.5682 123.247 18.5455Z" fill="black"/>
</svg>
